<svg xmlns="http://www.w3.org/2000/svg" xmlns:xlink="http://www.w3.org/1999/xlink" width="300" viewBox="0 0 247 244" fill="none"><rect x="0" y="0" width="0" height="0" fill="rgba(249, 249, 249, 1)" /><g opacity="1"  transform="translate(0 0)"><mask id="bg-mask-0" fill="white"><use transform="translate(0 0)" xlink:href="#path_0"></use></mask><g mask="url(#bg-mask-0)" ><path  id="路径 1" style="fill:#538ADB; opacity:1;" d="M200 78L200 168L184 168L184 78L200 78Z"></path><path  id="路径 2" style="fill:#A10000; opacity:1;" d="M113 78L113 168L97 168L97 78L113 78Z"></path><path  id="路径 3" style="fill:#00BAAD; opacity:1;" d="M113 33L113 78L97 78L97 33L113 33Z"></path><path  id="路径 4" style="fill:#00BAAD; opacity:1;" d="M113 168L113 210.5L97 210.5L97 168L113 168Z"></path><path  id="箭头 1" style="fill:#FFC300; opacity:1;" d="M179.818 81.8891L183.354 78.3536C183.549 78.1583 183.549 77.8417 183.354 77.6464L179.818 74.1109C179.503 73.7959 178.964 74.019 178.964 74.4645L178.964 77.5L114 77.5L114 78.5L178.964 78.5L178.964 81.5355C178.964 81.981 179.503 82.2041 179.818 81.8891Z"></path><path  id="箭头 2" style="fill:#FFC300; opacity:1;" d="M179.818 171.889L183.354 168.354C183.549 168.158 183.549 167.842 183.354 167.646L179.818 164.111C179.503 163.796 178.964 164.019 178.964 164.464L178.964 167.5L114 167.5L114 168.5L178.964 168.5L178.964 171.536C178.964 171.981 179.503 172.204 179.818 171.889Z"></path><g opacity="1" transform="translate(55 47)"><a xlink:href="https://" xlink:title="跳转" target="_blank"><text><tspan x="0" y="11.6" font-size="10" line-height="0" fill="#00BAAD" opacity="1" font-family="SourceHanSansCN-Regular" font-weight="Regular" letter-spacing="0" >overflow</tspan></text></a></g><g opacity="1" transform="translate(55 183)"><a xlink:href="https://" xlink:title="跳转" target="_blank"><text><tspan x="0" y="11.6" font-size="10" line-height="0" fill="#00BAAD" opacity="1" font-family="SourceHanSansCN-Regular" font-weight="Regular" letter-spacing="0" >overflow</tspan></text></a></g><path  id="路径 5" style="fill:#00BAAD; opacity:1;" d="M191.354 167.646C191.158 167.451 190.842 167.451 190.646 167.646L187.111 171.182C186.796 171.497 187.019 172.036 187.464 172.036L190.455 172.036Q190.27 179.76 189.323 182.583Q187.598 187.725 181.218 189.838Q174.668 192.007 158.497 192.602Q147.678 193 114 193L114 194Q147.696 194 158.534 193.601Q174.847 193.001 181.532 190.787Q188.387 188.517 190.271 182.901Q191.264 179.941 191.455 172.036L194.536 172.036C194.981 172.036 195.204 171.497 194.889 171.182L191.354 167.646Z"></path><path  id="路径 6" style="fill:#00BAAD; opacity:1;" d="M115 48.5Q148.26 48.5 158.958 48.9301Q175.066 49.5777 181.67 51.9673Q188.436 54.4155 190.29 60.4548Q191.286 63.6954 191.462 72.4645L194.536 72.4645C194.981 72.4645 195.204 73.003 194.889 73.318L191.354 76.8536C191.158 77.0488 190.842 77.0488 190.646 76.8536L187.111 73.318C186.796 73.003 187.019 72.4645 187.464 72.4645L190.462 72.4645Q190.29 63.8613 189.335 60.7483Q187.626 55.186 181.33 52.9077Q174.871 50.5707 158.917 49.9293Q148.24 49.5 115 49.5L115 48.5Z"></path><path  id="箭头 3" style="fill:#FFC300; opacity:1;" d="M179.818 126.889L183.354 123.354C183.549 123.158 183.549 122.842 183.354 122.646L179.818 119.111C179.503 118.796 178.964 119.019 178.964 119.464L178.964 122.5L114 122.5L114 123.5L178.964 123.5L178.964 126.536C178.964 126.981 179.503 127.204 179.818 126.889Z"></path></g></g><defs><rect id="path_0" x="0" y="0" width="247" height="244" rx="0" ry="0"/></defs></svg>