<svg xmlns="http://www.w3.org/2000/svg" xmlns:xlink="http://www.w3.org/1999/xlink" width="247" height="244" viewBox="0 0 247 244" fill="none"><g opacity="1"  transform="translate(0 0)"><mask id="bg-mask-0" fill="white"><use transform="translate(0 0)" xlink:href="#path_0"></use></mask><g mask="url(#bg-mask-0)" ><path  id="路径 1" style="fill:#538ADB; opacity:1;" d="M179.499 67.1319L177.999 158.132L162.001 157.868L163.501 66.8681L179.499 67.1319Z"></path><path  id="路径 2" style="fill:#A10000; opacity:1;" d="M72 37L72 216L54 216L54 37L72 37Z"></path><path  id="箭头 1" style="fill:#FFA98C; opacity:1;" d="M161.432 162.993L162.489 158.106C162.547 157.836 162.376 157.57 162.106 157.511L157.219 156.455C156.783 156.36 156.451 156.84 156.693 157.214L158.337 159.766L71.7291 215.58L72.2709 216.42L158.879 160.606L160.523 163.158C160.764 163.532 161.338 163.428 161.432 162.993Z"></path><path  id="箭头 2" style="fill:#70B3FF; opacity:1;" d="M159.778 69.7244L164.228 67.445C164.474 67.3191 164.571 67.0178 164.445 66.7721L162.166 62.3218C161.963 61.9254 161.382 61.9723 161.245 62.3963L160.313 65.2852L71.1535 36.5241L70.8465 37.4759L160.006 66.2369L159.074 69.1259C158.937 69.5498 159.381 69.9275 159.778 69.7244Z"></path><g opacity="1" transform="translate(183 149)"><a xlink:href="https://" xlink:title="跳转" target="_blank"><text><tspan x="0" y="16.240000000000002" font-size="14" line-height="0" fill="#538ADB" opacity="1" font-family="SourceHanSansCN-Regular" font-weight="Regular" letter-spacing="0" >down</tspan></text></a></g><g opacity="1" transform="translate(183 52)"><a xlink:href="https://" xlink:title="跳转" target="_blank"><text><tspan x="0" y="16.240000000000002" font-size="14" line-height="0" fill="#538ADB" opacity="1" font-family="SourceHanSansCN-Regular" font-weight="Regular" letter-spacing="0" >up</tspan></text></a></g><g opacity="1" transform="translate(25 207)"><a xlink:href="https://" xlink:title="跳转" target="_blank"><text><tspan x="0" y="16.240000000000002" font-size="14" line-height="0" fill="#A10000" opacity="1" font-family="SourceHanSansCN-Regular" font-weight="Regular" letter-spacing="0" >min</tspan></text></a></g><g opacity="1" transform="translate(25 22)"><a xlink:href="https://" xlink:title="跳转" target="_blank"><text><tspan x="0" y="16.240000000000002" font-size="14" line-height="0" fill="#A10000" opacity="1" font-family="SourceHanSansCN-Regular" font-weight="Regular" letter-spacing="0" >max</tspan></text></a></g></g></g><defs><rect id="path_0" x="0" y="0" width="247" height="244" rx="0" ry="0"/></defs></svg>